<svg xmlns="http://www.w3.org/2000/svg" id="b" data-name="Logo" width="1804.999" height="698.101" viewBox="0 0 1804.999 698.101"><path d="M701.297,250.615h0c-8.65,7.723-21.78,7.384-30.08-.714-53.587-52.284-126.846-84.49-207.624-84.49-164.24,0-297.37,133.14-297.37,297.37,0,27.591,3.757,54.304,10.788,79.652,3.107,11.199-2.867,22.904-13.821,26.785l-.009.003c-11.976,4.243-25.124-2.482-28.529-14.723-8.117-29.182-12.459-59.942-12.459-91.718,0-188.55,152.85-341.4,341.4-341.4,92.792,0,176.931,37.022,238.465,97.091,9.11,8.893,8.735,23.665-.761,32.144Z" fill="#ff5000"></path><g><g><path d="M299.408,519.855c-23.021,0-41.149-7.96-54.384-23.884-1.727-2.302-1.439-5.082.863-8.344l11.51-16.116c1.726-2.879,4.123-3.352,7.193-1.438,12.275,8.825,22.921,13.237,31.941,13.237,8.633,0,12.949-3.068,12.949-9.209,0-2.683-.913-4.937-2.734-6.763-1.825-1.822-5.134-3.692-9.928-5.61l-18.415-7.483c-20.336-7.864-30.502-20.813-30.502-38.846,0-13.237,4.891-23.784,14.675-31.652,9.784-7.864,21.77-11.799,35.969-11.799,19.756,0,35.968,7.387,48.63,22.158,1.338,1.726,1.244,3.74-.288,6.042l-14.675,17.265c-1.727,1.726-3.935,1.726-6.618,0-9.595-7.48-17.841-11.223-24.747-11.223-7.481,0-11.223,3.074-11.223,9.209,0,4.604,3.742,8.444,11.223,11.511l21.293,8.344c21.293,8.444,31.652,21.969,31.077,40.572-.194,13.813-5.423,24.604-15.682,32.372-10.266,7.768-22.976,11.655-38.128,11.655Z" fill="#ff5000"></path><path d="M405.343,571.074c-4.028,0-5.278-1.726-3.742-5.181l20.718-49.205-54.672-136.392c-1.151-3.263.094-4.893,3.742-4.893h35.68c2.879,0,4.699,1.149,5.467,3.452l31.077,86.325,31.078-86.325c.764-2.302,2.589-3.452,5.466-3.452h35.681c3.642,0,4.893,1.63,3.742,4.893l-74.816,187.322c-.768,2.302-2.494,3.455-5.179,3.455h-34.242Z" fill="#ff5000"></path><path d="M548.348,516.4c-2.877,0-4.316-1.438-4.316-4.316v-132.363c0-2.879,1.439-4.316,4.316-4.316h33.954c2.879,0,4.316,1.537,4.316,4.604l1.439,16.401c9.209-16.301,22.921-24.46,41.149-24.46,14.963,0,27.193,5.229,36.688,15.683,9.495,10.458,14.242,24.703,14.242,42.73v81.721c0,2.879-1.537,4.316-4.603,4.316h-34.818c-3.071,0-4.604-1.438-4.604-4.316v-71.363c0-18.991-7.867-28.485-23.595-28.485-7.674,0-13.668,2.446-17.984,7.336-4.316,4.893-6.474,11.943-6.474,21.149v71.363c0,2.879-1.537,4.316-4.604,4.316h-35.105Z" fill="#ff5000"></path></g><g><path d="M725.418,516.4c-2.877,0-4.316-1.438-4.316-4.316v-192.791c0-2.879,1.439-4.316,4.316-4.316h42.012c2.491,0,4.124.961,4.893,2.879l56.974,145.6,56.974-145.6c.764-1.918,2.491-2.879,5.179-2.879h42.012c2.877,0,4.316,1.438,4.316,4.316v192.791c0,2.879-1.439,4.316-4.316,4.316h-36.832c-3.071,0-4.604-1.438-4.604-4.316v-110.782s-3.452,12.661-3.452,12.661l-37.983,98.986c-.768,2.302-2.496,3.452-5.179,3.452h-32.228c-2.69,0-4.416-1.149-5.179-3.452l-37.695-98.986-3.742-12.661v110.782c0,2.879-1.439,4.316-4.316,4.316h-36.832Z" fill="#191919"></path><path d="M1043.09,519.855c-23.019,0-41.723-7.003-56.11-21.008-14.388-13.999-21.581-31.84-21.581-53.521,0-21.098,6.713-38.603,20.142-52.512,13.426-13.906,30.883-20.864,52.37-20.864,20.907,0,37.502,6.526,49.781,19.567,12.275,13.048,18.416,29.064,18.416,48.055,0,7.675-1.25,13.429-3.742,17.265-2.494,3.839-6.811,5.754-12.949,5.754h-81.145c4.793,15.158,17.553,22.734,38.27,22.734,11.511,0,21.87-2.59,31.077-7.771,1.916-.957,3.642-.477,5.181,1.441l11.798,16.689c1.338,2.113.863,4.22-1.439,6.33-11.897,11.895-28.586,17.841-50.069,17.841ZM1007.697,432.089h59.277c-2.688-15.92-12.278-23.88-28.775-23.88-7.675,0-14.244,1.969-19.711,5.898-5.467,3.932-9.063,9.926-10.791,17.982Z" fill="#191919"></path><path d="M1195.7,519.855c-19.378,0-35.249-7.003-47.623-21.008-12.372-13.999-18.559-31.652-18.559-52.945,0-21.101,6.186-38.702,18.559-52.801,12.374-14.102,28.245-21.152,47.623-21.152,17.648,0,31.459,5.856,41.437,17.553v-74.526c0-2.879,1.438-4.316,4.316-4.316h35.393c3.066,0,4.603,1.438,4.603,4.316v197.107c0,2.879-1.631,4.316-4.891,4.316h-31.653c-3.071,0-4.603-1.438-4.603-4.316l-.576-13.81c-10.169,14.386-24.846,21.581-44.026,21.581ZM1181.6,470.506c6.138,6.234,14.001,9.35,23.595,9.35,9.59,0,17.409-3.116,23.453-9.35,6.042-6.234,9.063-14.534,9.063-24.892,0-9.971-3.021-18.078-9.063-24.316-6.044-6.231-13.863-9.35-23.453-9.35-9.401,0-17.22,3.119-23.451,9.35-6.236,6.237-9.351,14.438-9.351,24.604,0,10.169,3.066,18.37,9.207,24.604Z" fill="#191919"></path><path d="M1362.335,346.052c-4.51,4.604-10.214,6.907-17.121,6.907-6.905,0-12.661-2.347-17.265-7.051-4.604-4.697-6.905-10.403-6.905-17.121s2.301-12.372,6.905-16.977c4.604-4.604,10.36-6.903,17.265-6.903,6.907,0,12.611,2.299,17.121,6.903,4.505,4.604,6.763,10.266,6.763,16.977,0,6.907-2.257,12.664-6.763,17.265ZM1327.374,516.4c-2.879,0-4.316-1.438-4.316-4.316v-132.363c0-2.879,1.438-4.316,4.316-4.316h35.681c2.877,0,4.316,1.438,4.316,4.316v132.363c0,2.879-1.439,4.316-4.316,4.316h-35.681Z" fill="#191919"></path><path d="M1467.504,519.855c-21.487,0-39.327-7.147-53.521-21.437-14.199-14.29-21.293-32.084-21.293-53.38,0-20.717,6.95-38.075,20.861-52.08,13.906-14.002,31.509-21.008,52.802-21.008,23.21,0,41.437,8.633,54.672,25.898,1.916,1.921,1.822,3.935-.287,6.045l-19.855,18.991c-2.496,2.494-5.085,2.59-7.77.288-7.293-7.291-15.538-10.935-24.747-10.935-10.169,0-18.272,3.119-24.314,9.35-6.042,6.237-9.065,14.057-9.065,23.451,0,9.596,3.068,17.749,9.209,24.46,6.137,6.718,14.386,10.07,24.747,10.07,8.633,0,16.878-3.641,24.746-10.935,2.302-2.299,4.792-2.203,7.481.288l19.854,18.991c1.916,1.921,2.016,3.935.288,6.045-13.237,17.265-31.176,25.898-53.809,25.898Z" fill="#191919"></path><path d="M1609.674,519.855c-21.104,0-38.702-7.096-52.802-21.293-14.1-14.194-21.149-31.748-21.149-52.66,0-20.906,7.049-38.459,21.149-52.66,14.1-14.191,31.698-21.293,52.802-21.293,21.293,0,38.991,7.102,53.09,21.293,14.098,14.201,21.149,31.754,21.149,52.66,0,20.912-7.051,38.465-21.149,52.66-14.1,14.198-31.797,21.293-53.09,21.293ZM1586.941,470.362c5.944,6.141,13.525,9.206,22.732,9.206,9.207,0,16.783-3.064,22.732-9.206,5.943-6.138,8.921-14.29,8.921-24.46,0-10.166-2.978-18.319-8.921-24.46-5.949-6.135-13.525-9.206-22.732-9.206-9.207,0-16.788,3.071-22.732,9.206-5.948,6.141-8.921,14.294-8.921,24.46,0,10.169,2.973,18.322,8.921,24.46Z" fill="#191919"></path></g></g></svg>